<?xml version="1.0" encoding="UTF-8" standalone="no"?>
<svg width="96px" height="40px" viewBox="0 0 96 40" version="1.1" xmlns="http://www.w3.org/2000/svg" xmlns:xlink="http://www.w3.org/1999/xlink" xmlns:sketch="http://www.bohemiancoding.com/sketch/ns">
    <!-- Generator: Sketch 3.4.2 (15855) - http://www.bohemiancoding.com/sketch -->
    <title>Logo Bemate</title>
    <desc>Created with Sketch.</desc>
    <defs></defs>
    <g id="Page-1" stroke="none" stroke-width="1" fill="none" fill-rule="evenodd" sketch:type="MSPage">
        <g id="Logo-Bemate" sketch:type="MSLayerGroup">
            <g id="Group" sketch:type="MSShapeGroup">
                <g id="Fill-2-+-Fill-4" transform="translate(8.800000, 12.800000)" fill="#434A54">
                    <path d="M3.0781122,11.6288229 L5.17061031,11.6288229 C6.04378767,11.6288229 6.69888201,11.5167086 7.13589333,11.29248 C7.57248201,11.0681045 7.79098767,10.6264065 7.79098767,9.96650449 C7.79098767,9.30733714 7.55938013,8.87210449 7.09672855,8.66139429 C6.63379522,8.45068408 5.8940317,8.3450351 4.87729711,8.3450351 L3.0781122,8.3450351 L3.0781122,11.6288229 Z M3.0781122,5.83649633 L4.52523673,5.83649633 C5.37249208,5.83649633 6.0016644,5.74157388 6.41233107,5.55099429 C6.82299774,5.36056163 7.02826063,4.94928 7.02826063,4.31685551 C7.02826063,3.6847249 6.83919899,3.2663902 6.4612166,3.06258612 C6.08295245,2.85848816 5.44434113,2.75665959 4.54481912,2.75665959 L3.0781122,2.75665959 L3.0781122,5.83649633 Z M6.01138516,14.321182 L0.0274857862,14.321182 L0.0274857862,0.0641534694 L5.34657006,0.0641534694 C6.27201409,0.0641534694 7.0703839,0.179794286 7.74210214,0.41092898 C8.41339774,0.642210612 8.91845434,0.954896327 9.25755371,1.34928 C9.87024302,2.08353306 10.1766581,2.91314939 10.1766581,3.83768816 C10.1766581,4.95251265 9.83107824,5.78212898 9.14020025,6.32594939 C8.90563421,6.51652898 8.74249459,6.63540245 8.65134491,6.68271673 C8.56005434,6.73076571 8.39719648,6.80864327 8.16248956,6.9175249 C9.00974491,7.10781061 9.68442164,7.50557388 10.1865197,8.11066776 C10.6881952,8.71561469 10.9393852,9.46705959 10.9393852,10.3644147 C10.9393852,11.3569861 10.6132468,12.2340637 9.96153358,12.9955004 C9.20528704,13.8794841 7.88875874,14.321182 6.01138516,14.321182 L6.01138516,14.321182 Z" id="Fill-2"></path>
                    <path d="M22.1249167,0.0642857143 L22.1249167,2.89932245 L15.319684,2.89932245 L15.319684,5.83633469 L21.4405192,5.83633469 L21.4405192,8.54911837 L15.319684,8.54911837 L15.319684,11.5065551 L22.3400413,11.5065551 L22.3400413,14.3211673 L12.2690576,14.3211673 L12.2690576,0.0642857143 L22.1249167,0.0642857143 Z" id="Fill-4"></path>
                </g>
                <g transform="translate(44.000000, 12.800000)" fill="#434A54">
                    <path d="M12.4556429,5.34691102 L8.70792857,13.1381927 L6.86364286,13.1381927 L3.13578571,5.34691102 L3.13578571,14.3211967 L0.0422142857,14.3211967 L0.0422142857,0.064315102 L4.2265,0.064315102 L7.79564286,7.89644571 L11.3847857,0.064315102 L15.5490714,0.064315102 L15.5490714,14.3211967 L12.4556429,14.3211967 L12.4556429,5.34691102 Z" id="Fill-6"></path>
                    <path d="M23.7981286,4.30671673 L22.0531286,8.44715755 L25.5232714,8.44715755 L23.7981286,4.30671673 Z M27.9821286,14.321182 L26.6932714,11.2413453 L20.8831286,11.2413453 L19.5941286,14.321182 L16.3024143,14.321182 L22.2909857,0.0643004082 L25.2852714,0.0643004082 L31.2738429,14.321182 L27.9821286,14.321182 Z" id="Fill-8"></path>
                    <path d="M36.4096,2.81774204 L36.4096,14.3212849 L33.3161714,14.3212849 L33.3161714,2.81774204 L29.3898857,2.81774204 L29.3898857,0.0642563265 L40.3358857,0.0642563265 L40.3358857,2.81774204 L36.4096,2.81774204 Z" id="Fill-10"></path>
                    <path d="M51.7377286,0.0642857143 L51.7377286,2.89932245 L44.8370143,2.89932245 L44.8370143,5.83633469 L51.0437286,5.83633469 L51.0437286,8.54911837 L44.8370143,8.54911837 L44.8370143,11.5065551 L51.9557286,11.5065551 L51.9557286,14.3211673 L41.7435857,14.3211673 L41.7435857,0.0642857143 L51.7377286,0.0642857143 Z" id="Fill-12"></path>
                </g>
                <g transform="translate(72.000000, 30.400000)" fill="#9B9B9B">
                    <path d="M0.213159763,6.13208178 C0.0910295858,6.00706844 0.029964497,5.85631289 0.029964497,5.67981511 C0.029964497,5.50360178 0.0910295858,5.35426844 0.213159763,5.23181511 C0.335147929,5.10964622 0.484402367,5.04849067 0.660497041,5.04849067 C0.836591716,5.04849067 0.986982249,5.10964622 1.11209467,5.23181511 C1.23692308,5.35426844 1.2995503,5.50360178 1.2995503,5.67981511 C1.2995503,5.85631289 1.23692308,6.00706844 1.11209467,6.13208178 C0.986982249,6.25723733 0.836591716,6.31981511 0.660497041,6.31981511 C0.484402367,6.31981511 0.335147929,6.25723733 0.213159763,6.13208178" id="Fill-14"></path>
                    <path d="M5.82400473,5.33846756 C6.1703716,5.33846756 6.46859645,5.28029867 6.71867929,5.16367644 C6.96862012,5.04705422 7.22992189,4.86074311 7.50258462,4.60460089 L8.15015858,5.27034311 C7.51962604,5.96993422 6.75418225,6.31980089 5.85382722,6.31980089 C4.95347219,6.31980089 4.20634793,6.02966756 3.61288047,5.44940089 C3.01927101,4.86913422 2.72246627,4.13540978 2.72246627,3.24794311 C2.72246627,2.36047644 3.02495148,1.62092089 3.62992189,1.02913422 C4.23489231,0.437632 4.99877396,0.141809778 5.9219929,0.141809778 C6.84492781,0.141809778 7.61619408,0.483000889 8.23536568,1.16566756 L7.59631243,1.86540089 C7.31214675,1.59233422 7.04388639,1.40175644 6.79110533,1.29380978 C6.53818225,1.18572089 6.24151953,1.13153422 5.90069112,1.13153422 C5.29856095,1.13153422 4.79299882,1.32652089 4.38400473,1.71606756 C3.97501065,2.10589867 3.77051361,2.60367644 3.77051361,3.20940089 C3.77051361,3.81540978 3.97359053,4.32186311 4.37974438,4.72847644 C4.78575621,5.13508978 5.26717633,5.33846756 5.82400473,5.33846756" id="Fill-16"></path>
                    <path d="M13.9228402,1.69486222 C13.5166864,1.27388444 13.0180828,1.06339556 12.4274556,1.06339556 C11.8365444,1.06339556 11.3380828,1.27388444 10.931929,1.69486222 C10.5257751,2.11584 10.3226982,2.62641778 10.3226982,3.22659556 C10.3226982,3.82677333 10.5257751,4.33735111 10.931929,4.75818667 C11.3380828,5.17930667 11.8365444,5.38965333 12.4274556,5.38965333 C13.0180828,5.38965333 13.5166864,5.17930667 13.9228402,4.75818667 C14.3288521,4.33735111 14.531929,3.82677333 14.531929,3.22659556 C14.531929,2.62641778 14.3288521,2.11584 13.9228402,1.69486222 M14.6597396,5.42819556 C14.0576095,6.01699556 13.3136095,6.31125333 12.4274556,6.31125333 C11.5411598,6.31125333 10.7970178,6.01699556 10.1950296,5.42819556 C9.5927574,4.83925333 9.29183432,4.10538667 9.29183432,3.22659556 C9.29183432,2.34766222 9.5927574,1.61379556 10.1950296,1.02485333 C10.7970178,0.436053333 11.5411598,0.141795556 12.4274556,0.141795556 C13.3136095,0.141795556 14.0576095,0.436053333 14.6597396,1.02485333 C15.2618698,1.61379556 15.5630769,2.34766222 15.5630769,3.22659556 C15.5630769,4.10538667 15.2618698,4.83925333 14.6597396,5.42819556" id="Fill-18"></path>
                    <path d="M18.2640568,6.25153422 L17.258613,6.25153422 L17.258613,0.286876444 L18.8264237,0.286876444 L20.6241515,4.03286756 L22.4220213,0.286876444 L23.9814533,0.286876444 L23.9814533,6.25153422 L22.9760095,6.25153422 L22.9760095,1.59233422 L20.8969562,5.73100089 L20.3345893,5.73100089 L18.2640568,1.59233422 L18.2640568,6.25153422 Z" id="Fill-20"></path>
                </g>
                <path d="M0,40 L40,40 L40,0 L0,0 L0,40 Z M3.2,3.2 L36.8,3.2 L36.8,36.8 L3.2,36.8 L3.2,3.2 Z" id="Fill-1" fill="#967ADC"></path>
            </g>
        </g>
    </g>
</svg>